<svg id="static" xmlns="http://www.w3.org/2000/svg" width="124.02" height="129.4" viewBox="0 0 124.02 129.4"><defs><style>.cls-1{fill:#fff;stroke:#000;}.cls-1,.cls-3{stroke-linecap:round;}.cls-2,.cls-3{fill:none;}.cls-3{stroke:#ed1a3b;}.cls-4{fill:#009f4c;}</style></defs><title>1-5_image2</title><polyline class="cls-1" points="123.52 114.81 13.02 114.81 13.02 4.31"/><path d="M304.6,176.09c-2.63,0-3.13-2.8-3.13-4.69s0.51-4.69,3.13-4.69,3.13,2.79,3.13,4.69S307.22,176.09,304.6,176.09Zm0-8.36c-1.31,0-1.91,1.38-1.91,3.67s0.6,3.67,1.91,3.67,1.91-1.38,1.91-3.67S305.91,167.73,304.6,167.73Z" transform="translate(-292.48 -46.69)"/><path d="M394.17,170.64l0.6,0a1.49,1.49,0,0,0,1.74-1.5,1.46,1.46,0,0,0-1.69-1.44,1.74,1.74,0,0,0-1.78,2h-1.12a2.69,2.69,0,0,1,3-3c1.77,0,2.82,1,2.82,2.4a1.84,1.84,0,0,1-1.17,1.89v0a2,2,0,0,1,1.52,2.13c0,1.5-1,2.94-3.29,2.94a3.61,3.61,0,0,1-1.69-.4A3,3,0,0,1,391.7,173h1.18a1.78,1.78,0,0,0,2,2,1.8,1.8,0,0,0,2-1.77c0-1.53-1.35-1.68-2.13-1.68h-0.52v-1Z" transform="translate(-292.48 -46.69)"/><path d="M361.74,170c0-3,2.17-3.28,3.16-3.28a2.68,2.68,0,0,1,2.86,2.73c0,1.64-1.08,2.33-2.44,3.06l-0.95.52a2.63,2.63,0,0,0-1.57,1.75h5v1.08h-6.25a4,4,0,0,1,2.15-3.63l1.21-.7c1-.56,1.68-0.94,1.68-2.13a1.63,1.63,0,0,0-1.81-1.65c-1.73,0-1.81,1.61-1.85,2.25h-1.14Z" transform="translate(-292.48 -46.69)"/><path d="M335.74,175.84h-1.22v-6.49h-2.13v-0.91c1.48-.1,2.09-0.25,2.46-1.74h0.9v9.14Z" transform="translate(-292.48 -46.69)"/><line class="cls-2" x1="10.38" y1="2.23" x2="10.38" y2="8.61"/><path d="M295.06,50.62l0.6,0a1.49,1.49,0,0,0,1.74-1.5,1.46,1.46,0,0,0-1.69-1.44,1.74,1.74,0,0,0-1.78,2h-1.12a2.69,2.69,0,0,1,3-3c1.77,0,2.82,1,2.82,2.4A1.84,1.84,0,0,1,297.41,51v0a2,2,0,0,1,1.52,2.13c0,1.5-1,2.94-3.29,2.94a3.6,3.6,0,0,1-1.69-.4A3,3,0,0,1,292.59,53h1.18a1.78,1.78,0,0,0,2,2,1.8,1.8,0,0,0,2-1.77c0-1.53-1.35-1.68-2.13-1.68h-0.52v-1Z" transform="translate(-292.48 -46.69)"/><path d="M292.72,89.23c0-3,2.17-3.28,3.16-3.28a2.68,2.68,0,0,1,2.86,2.73c0,1.64-1.08,2.33-2.44,3.06l-0.95.52A2.63,2.63,0,0,0,293.77,94h5v1.08h-6.25a4,4,0,0,1,2.15-3.63l1.21-.7c1-.56,1.68-0.94,1.68-2.13A1.63,1.63,0,0,0,295.71,87c-1.73,0-1.81,1.61-1.85,2.25h-1.14Z" transform="translate(-292.48 -46.69)"/><path d="M296.81,134.36h-1.22v-6.49h-2.13V127c1.48-.1,2.09-0.25,2.46-1.74h0.9v9.14Z" transform="translate(-292.48 -46.69)"/><line class="cls-3" x1="13.85" y1="113.2" x2="108.84" y2="18.88"/><circle class="cls-4" cx="22.39" cy="46.62" r="1.53"/><circle class="cls-4" cx="42.36" cy="30.22" r="1.53"/><circle class="cls-4" cx="42.06" cy="69.06" r="1.53"/><circle class="cls-4" cx="88.26" cy="71.12" r="1.53"/><circle class="cls-4" cx="49.13" cy="49.64" r="1.53"/><circle class="cls-4" cx="333.34" cy="65.16" r="1.53" transform="translate(-229.18 224.48) rotate(-48.4)"/><circle class="cls-4" cx="359.15" cy="66.16" r="1.53" transform="translate(-221.26 244.12) rotate(-48.4)"/><circle class="cls-4" cx="333.14" cy="95" r="1.53" transform="translate(-251.57 234.37) rotate(-48.4)"/><circle class="cls-4" cx="351.31" cy="85.18" r="1.53" transform="translate(-238.14 244.6) rotate(-48.39)"/><circle class="cls-4" cx="60.34" cy="86.49" r="1.53"/><circle class="cls-4" cx="80.31" cy="70.09" r="1.53"/><circle class="cls-4" cx="80.01" cy="108.94" r="1.53"/><circle class="cls-4" cx="87.08" cy="89.51" r="1.53"/><circle class="cls-4" cx="371.29" cy="105.03" r="1.53" transform="translate(-246.32 266.15) rotate(-48.38)"/><circle class="cls-4" cx="397.1" cy="106.03" r="1.53" transform="translate(-238.32 285.9) rotate(-48.4)"/><circle class="cls-4" cx="371.09" cy="134.88" r="1.53" transform="translate(-268.64 276.13) rotate(-48.4)"/><circle class="cls-4" cx="389.26" cy="125.05" r="1.53" transform="translate(-255.21 286.37) rotate(-48.39)"/></svg>