<svg id="static" xmlns="http://www.w3.org/2000/svg" width="77.93" height="139.08" viewBox="0 0 77.93 139.08"><defs><style>.cls-1{fill:#737373;}.cls-1,.cls-10,.cls-11,.cls-12,.cls-13,.cls-14,.cls-2,.cls-3,.cls-4,.cls-5,.cls-6,.cls-7,.cls-8,.cls-9{fill-rule:evenodd;}.cls-2{fill:#bfbfbf;}.cls-3{fill:#9a9a9a;}.cls-4{fill:#fff;}.cls-5{fill:#404040;}.cls-6{fill:#e8e8e8;}.cls-7{fill:#f0e3b4;}.cls-9{fill:#f1f9fd;}.cls-10{fill:#b5b5b5;}.cls-11{fill:#adadad;}.cls-12{fill:#6b6b6b;}.cls-13{fill:#a0a0a0;}.cls-14{fill:#686868;}</style></defs><title>1-5_image3</title><path d="M151,307.07c-2.19-1.35-7-4.58-8.12-5.36s-1.93-1.25-1.93-2.71,0.05-4.16.05-4.16,2.24-1.93,2.55-3.12a5.55,5.55,0,0,0-.31-4.21c-0.83-1.77-1.2-1.72-1.14-3.75s0.21-6.09.31-6.72a1,1,0,0,1,.78-1c0.57-.21,3.8-1.3,3.8-1.3a11.37,11.37,0,0,0-.1-2.19c-0.16-.42-0.47-0.31-0.88-0.42s-2.4.1-2.4-1.2,0.37-5.05.57-6.71,1.56-18.48,1.56-18.48,0.57-1.2-1.2-1.77c-1.61-.57-13.95-4.79-13.95-4.79a1.28,1.28,0,0,1-1.35-1.41c-0.16-1.56.05-2.14-.73-3s-5.26-4.85-5.26-4.85l19.93-23.79a2.68,2.68,0,0,0-.36-3.44c-1.61-1.77-3.75-3.9-6.56-1.87C135.13,202,116.5,224.5,116.5,224.5a1.91,1.91,0,0,1-2.4.68c-1.77-.52-5.25-1.93-5.25-1.93s-0.26-.57-2.24,1.25-7.86,6.4-8.17,7.7a41.55,41.55,0,0,0-.68,4.63c0,0.36-.47,1.2,1.41,2.14s1.82,0.47,2,1.66a28.5,28.5,0,0,0,.36,3.28,4,4,0,0,0-1.3,5.1l-6.87,7.65s-1.25.88,0.21,2,3,1.41,3.85.89,5.78-5.26,5.78-5.26a10.39,10.39,0,0,0-.47,3.7,2,2,0,0,0,1.72,1.87c0.78,0.16,2.29.36,3.23-2.71l1.2,5.52-27.54,5s-1.67.68-.11,1.93,26.34,15.15,26.34,15.15a2.29,2.29,0,0,0,1.72.26l12-2.29L120.46,295a2.42,2.42,0,0,1-.78,1,7.7,7.7,0,0,1-2.08.31,2.89,2.89,0,0,0-1.87-3.75c-1.25-.52-2-1-6.45-1-2.08.21-4.48,0.26-5.15,2.5-0.1,1.51,0,1.87-.52,2.34a15.57,15.57,0,0,1-1.93,1.3,2.38,2.38,0,0,0-.88,1.35,1.18,1.18,0,0,1-1,1.14c-0.94.36-22.23,7.6-22.23,7.6s-2,.63-2.08,2.24S75,319.87,75,319.87l25.4,19.2s34.51-12.08,36.75-12.8,14.05-4.43,14.05-4.43,0.73,0,.83-1.61,0.89-10.46.89-10.46S153.14,308.42,151,307.07Zm-21.47-52.12L128,265.22s-8.93-3.34-10.37-3.94-4.29.35-4.29,0.35a5.85,5.85,0,0,0,.45-2.25c-0.05-.55-0.7-4.09-0.95-5.39s1.2-1.8,1.7-2a1.56,1.56,0,0,0,.7-1.35,1.73,1.73,0,0,1,.8-1s2.2-1.65,3.34-2.39a1.37,1.37,0,0,1,1.85.05s5,3.69,7,5.14S129.48,254.94,129.48,254.94Z" transform="translate(-74.96 -200)"/><path class="cls-1" d="M76,319.05L99.62,337q0.07-2.46.15-4.93c0-1.27.73-3.95-.39-4.75-2.51-1.79-4.88-3.75-7.39-5.54-5.31-3.79-10.43-7.85-15.75-11.63,0,2.49-.15,5-0.21,7.46" transform="translate(-74.96 -200)"/><path class="cls-2" d="M100.19,326.3c0.91-1.24,9-14.08,9.73-13.5,0.51,0.38-7.42,12.36-8.31,13.64,17-5.65,33.87-11.3,50.66-17.41l-10.43-6.89c-1.1-.73-1.57-1.34-2.84-1.12l-7.2,1.25c-1.5.26-1.66-.1-2.81-1.12-0.51-.45-1-0.95-1.51-1.36-1-.77-0.76-0.62-1.92-0.5-0.94.1-.69,0.32-1.64-0.07a8.24,8.24,0,0,1-1.84-1.24c-1.36-1.13-1.79-1.38-3.48-1,2,1.8,2.44,3.92,1.85,6.61a7.61,7.61,0,0,1-6.44,6.08c-5.93.85-14.69-1.17-13.67-8.64-7.76,2.72-15.52,5.71-23.45,7.89" transform="translate(-74.96 -200)"/><path class="cls-2" d="M108.93,282.1c12.15-2.75,24.11-6.42,36.24-9.31l-16.37-6.46-9.48-3.74c-2.19-.86-2.85-0.67-5.22-0.22-10.48,2-20.88,4.32-31.47,5.73,8.62,4.48,17.37,8.79,25.79,13.64" transform="translate(-74.96 -200)"/><path class="cls-3" d="M98.56,237.4c2.93,1.39,5.9,2.77,8.88,4,0.18-.49.83-2.76,0.64-3.2-0.28-.65-2-1.06-2.63-1.35a67.29,67.29,0,0,1-6.32-3.05,7.87,7.87,0,0,0-.5,2.63" transform="translate(-74.96 -200)"/><path class="cls-2" d="M108.79,237.12l9.38-9.67c-1.77-.65-3.58-1.3-5.29-2.09a24.81,24.81,0,0,0-2.75-1c-1.44-.48-1.49-0.55-2.57.53-2.64,2.64-6,4.89-8.37,7.79" transform="translate(-74.96 -200)"/><path class="cls-4" d="M101.33,248.56a2.94,2.94,0,0,1,3.12,1.42c0-1.64,2.3-1.71,3.49-1.35,1.74,0.52,1.6,1.22,1.56,2.7,0.93-.21,1.43.23,2.27,0.43,1.06,0.25.79,0.11,1.85-.29-3.19-3.74-8-4.62-12.65-4.62,0,0.45.09,0.9,0.14,1.35" transform="translate(-74.96 -200)"/><path class="cls-5" d="M114.26,250.19c0-2.54-2.77-3.42-4.91-4.32-2.38-1-5.52-2.26-7.67-.51,4.28,0.55,8.73,1.72,12.15,4.48" transform="translate(-74.96 -200)"/><path class="cls-3" d="M102.61,243.23c3.84,0.32,8.21,1.4,11.32,3.82,0.83,0.64,1.23,1.5,2.15.88l4-2.71c2-1.33,1.39-2.64,2.06-4.77-3.25.76-6.55,1.28-9.81,1.93-1.29.26-3.3,0.84-4.61,0.62-1.75-.29-3.73-1.82-5.33-2.63a8.2,8.2,0,0,0,0,2.2" transform="translate(-74.96 -200)"/><path class="cls-6" d="M104.17,258.79c0.89,0.16,2.61-.56,1-0.89-0.63-.12-2.53-0.15-1.17.68" transform="translate(-74.96 -200)"/><path class="cls-2" d="M127.9,238.19c0.06-.61.4-2.55,0-2.92-1.06-.92-2.19-1.79-3.19-2.78s-2.1-1.94-3.14-2.91c-0.54-.5-1.08-1-1.64-1.48s-1,.19-1.61.73a71.46,71.46,0,0,0-5.47,5.79c-1,1.14-2.12,2.21-3.21,3.3-0.63.63-.41,3-0.49,3.9,6.07-1.19,12.3-3.11,18.48-3.62" transform="translate(-74.96 -200)"/><path class="cls-2" d="M100.76,337.46c9.87-3.6,20-6.56,29.92-9.95,5-1.72,10.15-3.24,15.16-5.06,1.22-.44,2.45-0.85,3.68-1.27,1.94-.66,1.59-1.12,1.78-3.13,0.26-2.8.55-5.59,0.85-8.39-8.26,3.52-17,6.22-25.49,9.14s-17,6.32-25.67,9" transform="translate(-74.96 -200)"/><path class="cls-3" d="M110.42,306.62c3.94-.21,11.48-2.55,7.68-7.89,1.5,4.43-4.72,6.44-8.1,6.32a7.09,7.09,0,0,1-5.08-2.13c-1.55-1.86-1.54-2.92-1.88-5.19-1.34,4.86.82,7.56,5.55,8.74" transform="translate(-74.96 -200)"/><path class="cls-2" d="M119.52,303.42a11.84,11.84,0,0,1-9.88,4.26,9.85,9.85,0,0,1-5.82-2.34,7.05,7.05,0,0,1-1.74-2.39,17.46,17.46,0,0,1-.46-3.08c-1.72,4.73,1.91,7.33,6.07,8.55a10.26,10.26,0,0,0,11.12-3.29" transform="translate(-74.96 -200)"/><path class="cls-7" d="M107.86,297c2.26,0.33,5.09.83,7.25-.21,0.81-.39,1.71-1,1.61-2.05-0.11-1.23-1.56-1.48-2.61-1.71a15.51,15.51,0,0,0-6.92-.19c-2.8.66-2.05,3,.17,4" transform="translate(-74.96 -200)"/><path class="cls-7" d="M104.59,300.93a7.33,7.33,0,0,0,7.82,2.7c3.26-.7,4.67-2.79,4.19-6.11a11.08,11.08,0,0,1-11.73-.78,22.29,22.29,0,0,1-.28,3.41" transform="translate(-74.96 -200)"/><path class="cls-1" d="M133.37,254.6a19.25,19.25,0,0,1,2.06-1.35l-7-4.48a37.52,37.52,0,0,1-3.31-2.21c-0.61-.48-1.26-0.88-1.89-1.34-0.44-.32-1.46.59-1.91,0.85,3.46,3,7.67,5.3,11.37,8" transform="translate(-74.96 -200)"/><path class="cls-2" d="M136.72,252.75a108.83,108.83,0,0,1-.89,12.23c-0.09.81-.16,1.62-0.23,2.43,0,0.33,1.87,1.07,2.22,1.23,1.62,0.75,3.3,1.47,4.88,2.3,0.23-4.43.69-8.88,1.09-13.3,0.24-2.63.46-5.24,0.64-7.87,0.08-1.15.2-2.29,0.32-3.43,0.15-1.53-.32-1.3-1.62-1.76-4-1.41-7.89-2.9-11.87-4.26-1.92-.66-3.07-1.16-5-0.71-0.57.13-2.42,0.19-2.78,0.57s-0.34,2.76-.43,3.48" transform="translate(-74.96 -200)"/><path class="cls-7" d="M124.42,298.38q0.76-8.39,1.49-16.77c-0.45.13-3.89,0.88-3.91,1.16q-0.12,1.92-.24,3.84l-0.61,9.77" transform="translate(-74.96 -200)"/><path class="cls-3" d="M128.75,265.12l6,2.06c0.58-4.21.91-8.42,1.28-12.65-0.68.44-1.35,0.9-2,1.35-0.88.59-2.76-1.4-3.59-2-0.41,2.8-.87,5.59-1.28,8.38" transform="translate(-74.96 -200)"/><path class="cls-7" d="M125.2,298.59c1.36-.48,5-1,5.47-2.35a5.21,5.21,0,0,1-4.83-1.7c-0.24,1.18-.37,2.37-0.57,3.55" transform="translate(-74.96 -200)"/><path class="cls-7" d="M126.27,290.41c1.26-1.81,3.47-1.51,5.11-.21,0.22-3.46.31-6.92,0.64-10.37l-3.43.91c-1.71.46-1.43,0.6-1.58,2.42-0.17,2.07-.39,4.13-0.61,6.19" transform="translate(-74.96 -200)"/><path class="cls-2" d="M129,295c2.17,0.58,3.07-2.33,1.74-3.66-1.66-1.66-3.2,2.22-1.88,3.45" transform="translate(-74.96 -200)"/><path class="cls-3" d="M130.32,297.95l-2.84.78,2.84,2" transform="translate(-74.96 -200)"/><path class="cls-2" d="M132,295.53c-0.24,1.84-.31,3.69-0.43,5.54a18.62,18.62,0,0,0,4.64-.72c0.76-.16,1.52-0.31,2.28-0.45,1.33-.25,1.27.24,1.6-1a11.42,11.42,0,0,0,0-2.14c0-1,.44-1.88-0.69-2a8.35,8.35,0,0,1-4.67-1.77c-2.43-2-1.78-5.85.37-7.84s3.89-.32,6,0.29q0.29-4.41.57-8.81c-2,.53-4,1.23-6,1.77-0.38.1-2.4,0.58-2.42,0.85-0.06,1-.11,2-0.2,3q-0.31,3.47-.57,6.93c-0.14,1.82.62,3.41,0.07,5.21" transform="translate(-74.96 -200)"/><path class="cls-3" d="M135.65,292c-0.78-2.38.5-4.83,2.35-6.33-2.34-.43-3.88,3.73-3.05,5.47" transform="translate(-74.96 -200)"/><path class="cls-1" d="M138.21,293.4c3.45,1,6-3.81,3.27-6-1.33-1.1-2.5-.94-3.55.43a4.4,4.4,0,0,0-.43,4.9" transform="translate(-74.96 -200)"/><path class="cls-3" d="M129.25,290.63c-2.09.22-1.36,3.32-1.07,4.62-1.07-.7-1.7-0.83-1.7-2.13a3.18,3.18,0,0,1,1.28-2.77" transform="translate(-74.96 -200)"/><path class="cls-8" d="M113.12,255.81l-5.26,1.54a48.07,48.07,0,0,0,1.12,5.29c0.61,2.7,3.78,4.42,5.35,1.2" transform="translate(-74.96 -200)"/><path class="cls-2" d="M146.45,273l-19.26,5.27-13.12,3.59c-1,.27-5.63.69-5.06,2.31l37.52-9.8" transform="translate(-74.96 -200)"/><path class="cls-1" d="M108.36,282.74L81.29,268.17c-0.51,1.55,11.25,7,12.67,7.8l14.2,8" transform="translate(-74.96 -200)"/><path class="cls-9" d="M129.61,301.78l-20,11,0.43,0.21" transform="translate(-74.96 -200)"/><path class="cls-9" d="M109.5,313.58l-7.89,12.86a114.75,114.75,0,0,0,7.6-12.08" transform="translate(-74.96 -200)"/><path class="cls-9" d="M99.27,302.78L76.88,309c3.75-.86,7.44-2,11.16-2.91s7.48-1.67,10.94-3.13" transform="translate(-74.96 -200)"/><path class="cls-9" d="M100.19,326.3L76.88,309c7.7,5.62,15.65,11,23,17.05" transform="translate(-74.96 -200)"/><path class="cls-9" d="M152.13,309l-50,16.91c8-3.12,16.21-5.71,24.3-8.45,8.39-2.84,16.76-6.27,25.37-8.38" transform="translate(-74.96 -200)"/><path class="cls-9" d="M128,239.18l16.84,6a123.39,123.39,0,0,1-16.56-5.83" transform="translate(-74.96 -200)"/><path class="cls-9" d="M123,243.66l13.72,9.1c-4.34-3-8.67-6.47-13.36-9" transform="translate(-74.96 -200)"/><path class="cls-9" d="M136.72,253.25l-1.14,14.28c0.51-4,.86-8,1.21-11.94" transform="translate(-74.96 -200)"/><path class="cls-9" d="M115.26,249.27c-3.78-3.76-7.92-6.12-13.36-5,3.89-1.25,8.84,1.72,11.87,3.84" transform="translate(-74.96 -200)"/><path class="cls-9" d="M128,235.41l-8.53-7.67c2.58,2.56,5,5.44,8,7.53" transform="translate(-74.96 -200)"/><path class="cls-9" d="M109.5,238l-0.36,3.77a10.48,10.48,0,0,0,.64-2.77" transform="translate(-74.96 -200)"/><path class="cls-8" d="M104.45,271.37c-2.52-1.4-5.14-3.82-8-3.2l6.82,3.84" transform="translate(-74.96 -200)"/><path class="cls-8" d="M106.51,273.5l-1.78.43,4.66,2.84c2,1.22,2.37,1.85,4.58,1.14" transform="translate(-74.96 -200)"/><path class="cls-4" d="M138.78,209.76l-16.13,19.4c0-.07,0-0.09-0.07-0.07l8.42-10.2,5.45-6.6c0.46-.55,1.88-2.6,2.26-2.6" transform="translate(-74.96 -200)"/><path class="cls-10" d="M138.7,209.55l-8.77,10.63-5.58,6.77c-0.51.62-1.45,2.6-2.27,1.79s6.55-8.34,7.35-9.28l9.07-10.68a1.57,1.57,0,0,1,.14.57" transform="translate(-74.96 -200)"/><path class="cls-4" d="M138.49,208.77l-16.7,19.68c-1.11-.57.18-1.39,0.72-2l5.9-7,9.66-11.5a1.84,1.84,0,0,1,.35.64" transform="translate(-74.96 -200)"/><path class="cls-8" d="M138.07,207.91l-16.84,20c-1-.6,0-1.23.51-1.88l5.72-6.9,10-12a2.11,2.11,0,0,1,.5.57" transform="translate(-74.96 -200)"/><path class="cls-11" d="M134.8,206a2.41,2.41,0,0,1,.57.21l-9,10.62c-0.92,1.08-7.24,9.84-8.42,9.14" transform="translate(-74.96 -200)"/><path class="cls-4" d="M135.86,206.21a3.68,3.68,0,0,1,1.56.92l-16.77,20.25a3.42,3.42,0,0,0-2.2-1.21l9-10.62,5.73-6.77c0.61-.72,1.57-2.48,2.54-2.59" transform="translate(-74.96 -200)"/><path class="cls-4" d="M117.1,225.61L125.8,215c0.86-1,6.54-9.31,7.72-8.77l-8.42,10.2-5.7,6.91c-0.48.58-1.57,2.43-2.23,2.29" transform="translate(-74.96 -200)"/><path class="cls-4" d="M134.8,206L126,216.41l-5.82,6.9c-0.55.65-1.67,2.53-2.45,2.58l8.46-9.95c2.72-3.2,5.36-7.23,8.53-9.95" transform="translate(-74.96 -200)"/><path class="cls-8" d="M133.52,206.21a1.33,1.33,0,0,1,1.14-.21l-9.18,10.8-5.74,6.75c-0.54.63-1.53,2.44-2.35,2.21" transform="translate(-74.96 -200)"/><path class="cls-12" d="M134.44,204.5c1.19-1.43,2-3.3,3.91-3.41-0.77,1-2.16,4.09-3.63,3.48" transform="translate(-74.96 -200)"/><path class="cls-12" d="M142.76,204.86a23.84,23.84,0,0,1-3,3.62,11.22,11.22,0,0,0-1.66-2.55l2.87-3.77a9.41,9.41,0,0,1,1.42,2" transform="translate(-74.96 -200)"/><path class="cls-12" d="M139.34,201.09a4.13,4.13,0,0,1,1.07.64c-1,1.2-2.43,4.52-4.12,3.27" transform="translate(-74.96 -200)"/><path class="cls-4" d="M141,202.16c-0.42.55-2.94,4.64-3.48,3.48-0.23-.5,2.6-4.21,3.34-3.62" transform="translate(-74.96 -200)"/><path class="cls-4" d="M135.58,204.72c0.75-1,2.25-4.31,3.77-3.62-0.66.85-2.52,4.33-3.62,3.7" transform="translate(-74.96 -200)"/><path class="cls-8" d="M110.28,252.61l2.2,12.22c-1.29.29-1.57-4.81-1.76-5.76s-1.8-6.27-.73-6.46" transform="translate(-74.96 -200)"/><path class="cls-6" d="M103.67,250.84l-4.55,4.68c-0.76.79-2.69,3.62-3.83,3.42l4.47-4.55c0.73-.75,3-3.73,3.84-3.63" transform="translate(-74.96 -200)"/><path class="cls-6" d="M101.33,251.33l-7,7a3,3,0,0,1-.14-0.43" transform="translate(-74.96 -200)"/><path class="cls-13" d="M93.94,257.09l4.69-4.68c0.71-.71,2.26-3.16,3.42-2.64-1,1-7.75,7.73-8.1,7.39" transform="translate(-74.96 -200)"/><path class="cls-13" d="M104,251.47c-0.51,1.95-5.87,8-8,7.53l4.34-4.26c0.81-.8,2.74-3.27,3.62-3.34" transform="translate(-74.96 -200)"/><path class="cls-6" d="M108.72,250.19c-0.14.5-.28,1-0.43,1.49s-0.52-.2-0.35.53a0.71,0.71,0,0,1,0,.59l-1.34,4.56c-1.54-.23,1-6.39,1.35-7.68a3.81,3.81,0,0,1,.64.36" transform="translate(-74.96 -200)"/><path class="cls-6" d="M107,249.56l-1.78,7.39h-0.14c0-2.27,1.25-5.12,1.85-7.39" transform="translate(-74.96 -200)"/><path class="cls-13" d="M106.37,249.56L105,255.24c-0.33,1.34-.2,1.57-1.52,1.57,0.23-1.41,1-7.51,2.77-7.25" transform="translate(-74.96 -200)"/><path class="cls-13" d="M109.36,252.83c0.73,0.54.94,4,1.15,5.15q0.67,3.43,1.33,6.86c-1-.29-1.15-3.51-1.36-4.49l-1.41-6.52" transform="translate(-74.96 -200)"/><path class="cls-13" d="M110.07,263.84l-0.93-4.4c-0.26-1.24-1-3-.49-4.27l2.27,9.31a3,3,0,0,1-.78-0.57" transform="translate(-74.96 -200)"/><path class="cls-8" d="M107.94,249.7l-1.39,5c-0.06.22-.58,3.27-1.31,2.26-0.39-.55,1-4.31,1.2-5,0.2-.85.11-2.7,1.29-2.33" transform="translate(-74.96 -200)"/><path class="cls-8" d="M101.33,251.33l-7.11,6.61c-0.58-.92,7.32-8.64,8.46-8" transform="translate(-74.96 -200)"/><path class="cls-8" d="M104,251.26l-4.73,4.64c-0.83.81-2.31,3-3.52,3.1l8-8.17c0.08,0.09.13,0.19,0.21,0.28" transform="translate(-74.96 -200)"/><path class="cls-14" d="M105.66,249.56c-0.17.2-.38,0.38-0.57,0.57,0-.49.26-0.4,0.5-0.57" transform="translate(-74.96 -200)"/><path class="cls-4" d="M108.29,251.69a7.38,7.38,0,0,1-.28.85l-0.14-.64" transform="translate(-74.96 -200)"/><path class="cls-4" d="M111.42,264.69c-1.2-.35-1.37-3.81-1.63-4.87-0.51-2.09-1.36-3.94-.71-6" transform="translate(-74.96 -200)"/><path class="cls-13" d="M112.06,253.25l1.22,6.55c0.2,1.07,1.12,3.13.28,4.11q-0.51-3-1-5.94c-0.13-.75-1.09-4.77-0.55-4.79" transform="translate(-74.96 -200)"/><path class="cls-13" d="M110.28,252.61c1.66,0.09,1.44,3.83,1.63,5s1.93,6.77.57,7.22" transform="translate(-74.96 -200)"/><path class="cls-4" d="M111.7,253.11l1.2,7c0.18,1,1.26,3.63.15,4.37q-1-5.79-1.92-11.58l0.42,0.14" transform="translate(-74.96 -200)"/><path class="cls-4" d="M106.94,249.56c-0.24.93-1.68,7.53-2.27,7.32-0.1,0,1.21-7.28,2.13-7.32" transform="translate(-74.96 -200)"/><path class="cls-4" d="M102.75,250.05c1.54,0.56-.56,1.86-1.19,2.5l-6.07,6.18a0.65,0.65,0,0,1-1-.15c-0.27-.49,1-1.34,1.33-1.7l5.49-5.55" transform="translate(-74.96 -200)"/><path class="cls-4" d="M102.75,250.05l-1.42,1.28a15.35,15.35,0,0,1,1.35-1.28" transform="translate(-74.96 -200)"/><path class="cls-4" d="M128.4,271.58l-16.2,6.89,16.42-4.83" transform="translate(-74.96 -200)"/><path class="cls-4" d="M103.25,272l8.95-2.23,5.63-1.4c1.34-.33,2-0.11,1.48-1.7" transform="translate(-74.96 -200)"/><path class="cls-4" d="M109.22,293.33c-2.14.12-3.48,0.67-1.38,2.35,1.13,0.9,3.49,1,4.85.9,0.68,0,3.46-.86,2-2-1.16-.92-3.45-1.08-4.87-1.2" transform="translate(-74.96 -200)"/><path class="cls-2" d="M139.84,288.21c2,0.38,1.77,3.11.28,4.13-0.87.6-1.54,0.11-2.16-.63s0.34-2.65.81-3.35" transform="translate(-74.96 -200)"/><path class="cls-4" d="M126.91,281.46Q126,290.24,125.06,299c0.57-.38.42-1.46,0.49-2.13q0.33-3.17.66-6.34l1-9.44" transform="translate(-74.96 -200)"/><path class="cls-4" d="M138.7,287.08c-2.21,1.68-1.65,4.23-.5,6.32a4.94,4.94,0,0,1-.28-5" transform="translate(-74.96 -200)"/><path class="cls-4" d="M129.47,291.05a2.59,2.59,0,0,0-.5,3.77,3.5,3.5,0,0,1-.35-2.35" transform="translate(-74.96 -200)"/><path class="cls-4" d="M130.67,291.2c1.25,1,.63,2.39.07,3.55a6.11,6.11,0,0,0,.5-2.41" transform="translate(-74.96 -200)"/><path class="cls-9" d="M151.85,308.82l-21.11-6.61c6.7,2.18,13.66,5.67,20.68,6.61" transform="translate(-74.96 -200)"/></svg>